# xmcd
#
# Track frame offsets:
#	150
#	11094
#	21971
#	33363
#	43924
#	54566
#	65233
#	73084
#	83268
#	94500
#	105955
#	116003
#	125134
#	136432
#	147007
#	158978
#	171779
#	184474
#	195190
#	207345
#	219223
#	231281
#	242569
#	255226
#	265933
#	279085
#	292733
#	304979
#	315388
#	326347
#
# Disc length: 4498 seconds
#
# Revision: 0
# Processed by: cddbd v1.5.2PL0 Copyright (c) Steve Scherf et al.
# Submitted via: dBpowerAMP V4.0
#
DISCID=a411901e
DTITLE=Gene Chandler - Duke of Earl:  The very best of the Vee-Jay years
DYEAR=2005
DGENRE=Soul
TTITLE0=Duke Of Earl 
TTITLE1=Girl's A Devil 
TTITLE2=Big Lie
TTITLE3=Nite Owl 
TTITLE4=Festival Of Love 
TTITLE5=Kissin' In The Kitchen 
TTITLE6=Lonely Island 
TTITLE7=Stand By Me 
TTITLE8=Daddy's Home 
TTITLE9=I Wake Up Crying 
TTITLE10=Turn On Your Lovelight 
TTITLE11=Tear For Tear 
TTITLE12=You Threw A Lucky Punch
TTITLE13=Rainbow 
TTITLE14=Check Yourself 
TTITLE15=Baby That's Love 
TTITLE16=Man's Temptation 
TTITLE17=It's No Good For Me 
TTITLE18=Think Nothing About It 
TTITLE19=Song Called Soul 
TTITLE20=Bless Our Love 
TTITLE21=Just Be True 
TTITLE22=What Now 
TTITLE23=You Can't Hurt Me No More
TTITLE24=Nothing Can Stop Me 
TTITLE25=Rainbow '65 
TTITLE26=Rainbow '65 
TTITLE27=Gonna Be Good Times 
TTITLE28=Bet You Never Thought
TTITLE29=I'm Just A Fool For You 
EXTD=
EXTT0=
EXTT1=
EXTT2=
EXTT3=
EXTT4=
EXTT5=
EXTT6=
EXTT7=
EXTT8=
EXTT9=
EXTT10=
EXTT11=
EXTT12=
EXTT13=
EXTT14=
EXTT15=
EXTT16=
EXTT17=
EXTT18=
EXTT19=
EXTT20=
EXTT21=
EXTT22=
EXTT23=
EXTT24=
EXTT25=
EXTT26=
EXTT27=
EXTT28=
EXTT29=
PLAYORDER=
